<svg xmlns="http://www.w3.org/2000/svg" fill="none" viewBox="0 0 1146 1146" height="1146" width="1146">
<circle fill="#FFFDF9" r="573" cy="573" cx="573"></circle>
<path fill="black" d="M551.189 1146C558.459 1146 565.73 1146 573 1146C580.27 1146 587.541 1146 594.811 1146C744.782 1140.29 886.526 1075.94 989.575 966.789C1092.62 857.64 1148.75 712.403 1145.9 562.296C1143.04 412.189 1081.42 269.195 974.297 164.049C867.169 58.9033 723.08 0 573 0C422.92 0 278.831 58.9033 171.703 164.049C64.5749 269.195 2.96083 412.189 0.103949 562.296C-2.75293 712.403 53.3755 857.64 156.425 966.789C259.474 1075.94 401.218 1140.29 551.189 1146ZM573 1016.57C541.926 1016.57 511.55 1007.35 485.713 990.078C459.876 972.808 439.738 948.261 427.847 919.542C415.955 890.823 412.844 859.222 418.906 828.734C424.968 798.246 439.932 770.241 461.904 748.26C483.877 726.28 511.872 711.311 542.349 705.246C572.826 699.182 604.416 702.294 633.124 714.19C661.833 726.086 686.371 746.231 703.635 772.077C720.898 797.924 730.113 828.311 730.113 859.396C730.064 901.065 713.495 941.013 684.041 970.478C654.588 999.942 614.654 1016.52 573 1016.57ZM839.722 886.207C839.722 877.332 841.016 867.717 841.016 859.396C841.016 788.288 812.779 720.092 762.516 669.812C712.253 619.531 644.082 591.283 573 591.283C501.918 591.283 433.747 619.531 383.484 669.812C333.221 720.092 304.984 788.288 304.984 859.396C304.984 868.457 304.984 877.887 306.278 886.207C276.612 838.618 260.213 783.956 258.784 727.89C257.355 671.823 270.946 616.396 298.149 567.355C325.351 518.315 365.175 477.449 413.487 448.995C461.8 420.541 516.843 405.535 572.908 405.535C628.972 405.535 684.015 420.541 732.328 448.995C780.641 477.449 820.464 518.315 847.666 567.355C874.869 616.396 888.46 671.823 887.031 727.89C885.602 783.956 869.204 838.618 839.537 886.207H839.722ZM573 110.528C649.723 110.537 725.237 129.656 792.728 166.16C860.218 202.664 917.56 255.405 959.579 319.622C1001.6 383.839 1026.97 457.512 1033.41 533.993C1039.85 610.473 1027.15 687.354 996.465 757.698C997.574 745.494 998.129 733.29 998.129 720.717C998.129 607.925 953.339 499.752 873.612 419.996C793.884 340.24 685.751 295.434 573 295.434C460.249 295.434 352.116 340.24 272.388 419.996C192.661 499.752 147.871 607.925 147.871 720.717C147.871 733.106 147.871 745.494 149.535 757.698C118.845 687.354 106.147 610.473 112.587 533.993C119.027 457.512 144.401 383.839 186.421 319.622C228.44 255.405 285.782 202.664 353.272 166.16C420.762 129.656 496.276 110.537 573 110.528Z"></path>
</svg>
