<svg width="4802" height="1053" viewBox="0 0 4802 1053" fill="none" xmlns="http://www.w3.org/2000/svg">
<path d="M580.555 487C580.555 542.333 568.888 593.333 545.555 640C522.888 686.667 488.888 724 443.555 752C398.888 780 344.888 794 281.555 794C270.888 794 259.221 793 246.555 791C234.555 789 225.221 786.667 218.555 784L221.555 865V950L307.555 963V1025H0.554688V963L61.5547 950V332L0.554688 314V236L179.555 214H181.555L208.555 235V289C223.888 268.333 245.221 250.667 272.555 236C300.555 220.667 330.888 213 363.555 213C427.555 213 479.555 235.667 519.555 281C560.221 325.667 580.555 394.333 580.555 487ZM304.555 305C287.221 305 270.888 308.667 255.555 316C240.221 322.667 228.888 331 221.555 341V707C226.221 713 234.221 718 245.555 722C257.555 726 270.555 728 284.555 728C321.888 728 351.555 710 373.555 674C396.221 638 407.555 579.667 407.555 499C407.555 433.667 398.221 385 379.555 353C360.888 321 335.888 305 304.555 305ZM657.203 717L718.203 708V332L659.203 314V236L825.203 214H828.203L856.203 235V259L853.203 342H856.203C860.87 326.667 871.536 309 888.203 289C904.87 268.333 925.87 250.667 951.203 236C977.203 220.667 1005.2 213 1035.2 213C1052.54 213 1065.87 215.333 1075.2 220V394C1064.54 386 1052.87 379.667 1040.2 375C1028.2 370.333 1012.54 368 993.203 368C969.203 368 947.536 371.333 928.203 378C908.87 384 893.536 391 882.203 399V708L992.203 718V783H657.203V717ZM1139.67 508C1139.67 444 1152.34 390 1177.67 346C1203.01 301.333 1237.01 268 1279.67 246C1323.01 224 1370.34 213 1421.67 213C1505.67 213 1571.34 238.333 1618.67 289C1666.67 339 1690.67 409 1690.67 499C1690.67 565 1678.01 620 1652.67 664C1627.34 708 1593.34 740.667 1550.67 762C1508.01 783.333 1460.34 794 1407.67 794C1324.34 794 1258.67 769 1210.67 719C1163.34 668.333 1139.67 598 1139.67 508ZM1417.67 724C1449.67 724 1473.34 707 1488.67 673C1504.67 638.333 1512.67 584.333 1512.67 511C1512.67 433 1505.01 375.667 1489.67 339C1475.01 301.667 1450.01 283 1414.67 283C1349.34 283 1316.67 354 1316.67 496C1316.67 573.333 1324.67 630.667 1340.67 668C1356.67 705.333 1382.34 724 1417.67 724ZM1764.27 623C1764.27 564.333 1793.94 519.333 1853.27 488C1913.27 456.667 1991.94 440.667 2089.27 440V420C2089.27 396 2086.61 377 2081.27 363C2075.94 349 2066.27 338.667 2052.27 332C2038.27 324.667 2017.61 321 1990.27 321C1957.61 321 1928.27 325 1902.27 333C1876.94 340.333 1850.27 350.333 1822.27 363L1788.27 291C1798.94 282.333 1816.27 272 1840.27 260C1864.27 247.333 1892.94 236.667 1926.27 228C1960.27 218.667 1995.61 214 2032.27 214C2085.61 214 2127.27 221 2157.27 235C2187.94 249 2209.61 270.667 2222.27 300C2235.61 329.333 2242.27 369.333 2242.27 420V717H2294.27V780C2278.94 783.333 2257.61 786.667 2230.27 790C2202.94 793.333 2179.61 795 2160.27 795C2134.94 795 2117.94 791.333 2109.27 784C2101.27 776.667 2097.27 762 2097.27 740V717C2080.61 737 2058.27 755 2030.27 771C2002.27 786.333 1969.94 794 1933.27 794C1901.94 794 1873.27 787.333 1847.27 774C1821.94 760 1801.61 740.333 1786.27 715C1771.61 689 1764.27 658.333 1764.27 623ZM2011.27 702C2023.27 702 2036.61 698.667 2051.27 692C2065.94 684.667 2078.61 676 2089.27 666V507C2037.27 507 1998.61 516.333 1973.27 535C1948.61 553.667 1936.27 577.667 1936.27 607C1936.27 637 1942.94 660.333 1956.27 677C1969.61 693.667 1987.94 702 2011.27 702ZM2337.59 509C2337.59 449.667 2349.59 397.667 2373.59 353C2397.59 308.333 2431.25 274 2474.59 250C2517.92 225.333 2567.92 213 2624.59 213C2652.59 213 2676.59 215 2696.59 219C2717.25 222.333 2738.25 227.333 2759.59 234C2778.92 239.333 2790.92 242.333 2795.59 243L2788.59 424H2687.59L2661.59 309C2659.59 300.333 2653.92 294.333 2644.59 291C2635.92 287 2625.25 285 2612.59 285C2581.25 285 2556.59 300.333 2538.59 331C2521.25 361.667 2512.59 412.667 2512.59 484C2512.59 552 2523.59 604.333 2545.59 641C2568.25 677 2598.59 695 2636.59 695C2685.92 695 2731.25 682.333 2772.59 657L2799.59 716C2783.59 734 2757.25 751.667 2720.59 769C2683.92 785.667 2643.25 794 2598.59 794C2511.25 794 2445.92 768.333 2402.59 717C2359.25 665 2337.59 595.667 2337.59 509ZM3041.02 792C2997.02 792 2964.36 782 2943.02 762C2922.36 741.333 2912.02 709.667 2912.02 667V311H2851.02V253L2871.02 245C2887.02 239.667 2901.02 234 2913.02 228C2926.36 215.333 2937.02 198.667 2945.02 178C2955.02 154 2966.02 120.333 2978.02 77H3071.02L3077.02 227H3220.02V311H3079.02V576C3079.02 612.667 3080.02 638.333 3082.02 653C3084.02 667.667 3087.69 677.333 3093.02 682C3099.02 686 3109.69 688 3125.02 688C3156.36 688 3186.02 682.667 3214.02 672L3235.02 735C3216.36 750.333 3188.69 763.667 3152.02 775C3115.36 786.333 3078.36 792 3041.02 792ZM3400.23 123C3364.23 123 3346.23 104 3346.23 66C3346.23 46.6666 3351.89 30.9999 3363.23 18.9999C3374.56 6.33328 3389.89 -5.19753e-05 3409.23 -5.19753e-05C3429.23 -5.19753e-05 3443.56 5.66662 3452.23 17C3460.89 27.6666 3465.23 41 3465.23 57C3465.23 77.6666 3459.56 93.9999 3448.23 106C3437.56 117.333 3421.89 123 3401.23 123H3400.23ZM3368.23 294L3290.23 277V232L3427.23 216H3429.23L3449.23 232V733L3536.23 740V783H3280.23V740L3368.23 732V294ZM3670.45 294L3593.45 277V232L3720.45 216H3723.45L3742.45 232V276L3741.45 301C3766.11 279.667 3798.78 260 3839.45 242C3880.11 224 3917.78 215 3952.45 215C3995.11 215 4027.78 223.333 4050.45 240C4073.78 256 4089.78 281 4098.45 315C4107.78 348.333 4112.45 393.333 4112.45 450V733L4187.45 740V783H3964.45V740L4031.45 733V449C4031.45 407 4028.45 374 4022.45 350C4017.11 326 4006.11 308 3989.45 296C3973.45 283.333 3949.78 277 3918.45 277C3891.78 277 3862.78 283.667 3831.45 297C3800.78 310.333 3774.11 326 3751.45 344V732L3824.45 740V783H3603.45V740L3670.45 732V294ZM4497.77 1053C4340.43 1053 4261.77 1003 4261.77 903C4261.77 873 4270.77 845.667 4288.77 821C4307.43 796.333 4329.43 777 4354.77 763C4323.43 746.333 4307.77 718.667 4307.77 680C4307.77 655.333 4314.77 632.333 4328.77 611C4342.77 589 4360.77 572.333 4382.77 561C4351.43 546.333 4326.77 525.667 4308.77 499C4291.43 471.667 4282.77 440 4282.77 404C4282.77 365.333 4293.43 331.667 4314.77 303C4336.1 273.667 4363.77 251.333 4397.77 236C4432.43 220.667 4468.43 213 4505.77 213C4567.77 213 4617.43 226.667 4654.77 254C4664.77 244.667 4680.1 235.667 4700.77 227C4722.1 217.667 4744.77 213 4768.77 213H4801.77V287H4687.77C4707.1 313.667 4716.77 346 4716.77 384C4716.77 423.333 4706.77 458.333 4686.77 489C4666.77 519 4639.77 542.333 4605.77 559C4572.43 575.667 4535.43 584 4494.77 584C4467.43 584 4442.43 581 4419.77 575C4407.77 584.333 4398.1 595.333 4390.77 608C4384.1 620 4380.77 632.333 4380.77 645C4380.77 670.333 4388.77 688 4404.77 698C4421.43 708 4450.1 713 4490.77 713H4608.77C4670.77 713 4716.43 725 4745.77 749C4775.77 773 4790.77 806.667 4790.77 850C4790.77 886 4777.77 919.333 4751.77 950C4725.77 981.333 4690.1 1006.33 4644.77 1025C4600.1 1043.67 4551.1 1053 4497.77 1053ZM4504.77 535C4589.43 535 4631.77 488.333 4631.77 395C4631.77 306.333 4587.77 262 4499.77 262C4411.77 262 4367.77 305.667 4367.77 393C4367.77 435 4379.1 469.333 4401.77 496C4424.43 522 4458.77 535 4504.77 535ZM4502.77 1002C4538.77 1002 4573.1 996.667 4605.77 986C4638.43 976 4664.77 961 4684.77 941C4704.77 921.667 4714.77 899 4714.77 873C4714.77 852.333 4711.43 835.667 4704.77 823C4698.77 810.333 4686.43 800.333 4667.77 793C4649.77 786.333 4623.43 783 4588.77 783H4464.77C4432.77 783 4408.43 781 4391.77 777C4359.1 808.333 4342.77 845 4342.77 887C4342.77 925 4354.77 953.667 4378.77 973C4402.77 992.333 4444.1 1002 4502.77 1002Z" fill="#141414"/>
</svg>
